<svg xmlns="http://www.w3.org/2000/svg" width="140" height="140" viewBox="0 0 140 140">
  <g id="Untitled" transform="translate(-306 120)">
    <g id="_54551" data-name="54551" transform="translate(376 -50)">
      <g id="Group_161" data-name="Group 161">
        <g id="SVGRepo_iconCarrier" transform="translate(0 6.562)">
          <path id="Path_244" data-name="Path 244" d="M8.75,13.125h122.5V140H8.75Z" transform="translate(-70 -76.563)" fill="#eaeaea"/>
        </g>
        <g id="SVGRepo_iconCarrier-2" data-name="SVGRepo_iconCarrier" transform="translate(0 52.5)">
          <path id="Path_245" data-name="Path 245" d="M56.875,105h26.25v35H56.875Z" transform="translate(-70 -122.5)" fill="#a173fb"/>
        </g>
        <g id="SVGRepo_iconCarrier-3" data-name="SVGRepo_iconCarrier" transform="translate(0 4.375)">
          <path id="Path_246" data-name="Path 246" d="M56.875,78.75h26.25v17.5H56.875Zm-35,0h26.25v17.5H21.875Zm0,26.25h26.25v17.5H21.875Zm70-26.25h26.25v17.5H91.875Zm0,26.25h26.25v17.5H91.875Zm-35-52.5h26.25V70H56.875Zm-35,0h26.25V70H21.875Zm70,0h26.25V70H91.875Zm-35-26.25h26.25v17.5H56.875Zm-35,0h26.25v17.5H21.875Zm70,0h26.25v17.5H91.875Z" transform="translate(-70 -74.375)" fill="#a173fb"/>
        </g>
        <g id="SVGRepo_iconCarrier-4" data-name="SVGRepo_iconCarrier" transform="translate(0 -2.188)">
          <path id="Path_247" data-name="Path 247" d="M21.875,26.25h26.25v4.375H21.875Zm35,0h26.25v4.375H56.875Zm35,0h26.25v4.375H91.875Zm-70,26.25h26.25v4.375H21.875Zm35,0h26.25v4.375H56.875Zm35,0h26.25v4.375H91.875Zm-70,26.25h26.25v4.375H21.875Zm35,0h26.25v4.375H56.875Zm35,0h26.25v4.375H91.875Zm-70,26.25h26.25v4.375H21.875Zm70,0h26.25v4.375H91.875Z" transform="translate(-70 -67.813)"/>
        </g>
        <g id="SVGRepo_iconCarrier-5" data-name="SVGRepo_iconCarrier" transform="translate(0 -54.688)">
          <path id="Path_248" data-name="Path 248" d="M8.75,13.125h122.5V17.5H8.75Z" transform="translate(-70 -15.313)"/>
        </g>
        <g id="SVGRepo_iconCarrier-6" data-name="SVGRepo_iconCarrier" transform="translate(0 -63.438)">
          <path id="Path_249" data-name="Path 249" d="M140,8.75a4.375,4.375,0,0,1-4.375,4.375H4.375A4.375,4.375,0,0,1,0,8.75V4.375A4.375,4.375,0,0,1,4.375,0h131.25A4.375,4.375,0,0,1,140,4.375Z" transform="translate(-70 -6.563)" fill="#a173fb"/>
        </g>
        <g id="SVGRepo_iconCarrier-7" data-name="SVGRepo_iconCarrier" transform="translate(0 56.875)">
          <path id="Path_250" data-name="Path 250" d="M32.572,140A17.316,17.316,0,0,0,35,131.25a17.5,17.5,0,0,0-35,0A17.316,17.316,0,0,0,2.428,140H32.572ZM122.5,113.75a17.465,17.465,0,0,0-15.89,10.259,12.967,12.967,0,0,0-5.985-1.509A13.125,13.125,0,0,0,87.5,135.625,12.957,12.957,0,0,0,88.305,140h49.271A17.393,17.393,0,0,0,122.5,113.75Z" transform="translate(-70 -126.875)" fill="#3aad73"/>
        </g>
        <g id="SVGRepo_iconCarrier-8" data-name="SVGRepo_iconCarrier" transform="translate(27.464 61.25)">
          <path id="Path_251" data-name="Path 251" d="M106.61,124.009a12.967,12.967,0,0,0-5.985-1.509A13.125,13.125,0,0,0,87.5,135.625,12.957,12.957,0,0,0,88.305,140h19.123a17.027,17.027,0,0,1-.818-15.991Z" transform="translate(-97.464 -131.25)"/>
        </g>
      </g>
    </g>
  </g>
</svg>
