<svg xmlns="http://www.w3.org/2000/svg" width="129.063" height="129.063" viewBox="0 0 129.063 129.063">
  <g id="request" transform="translate(-1876.469 29.063)">
    <g id="_861069" data-name="861069" transform="translate(1941 35.469)">
      <g id="Group_163" data-name="Group 163">
        <g id="c" transform="translate(41.563 -14.219)">
          <path id="Path_255" data-name="Path 255" d="M133.438,52.5l-1-3.987a8.5,8.5,0,0,0-5.911-6.112l-10.592-3.026v-8.75h-8.75v8.75L96.6,42.4a8.5,8.5,0,0,0-5.911,6.112l-1,3.987,6.563,8.531V80.938h30.625V61.031l6.562-8.531Z" transform="translate(-111.563 -55.781)" fill="#dfdfdf"/>
        </g>
        <g id="c-2" data-name="c" transform="translate(41.563 -9.844)">
          <path id="Path_256" data-name="Path 256" d="M89.688,52.5l1-3.987A8.5,8.5,0,0,1,96.6,42.4l10.592-3.026a4.712,4.712,0,0,0,8.75,0L126.529,42.4a8.5,8.5,0,0,1,5.911,6.112l1,3.987-6.562,8.531V80.938H96.25V61.031L89.688,52.5Z" transform="translate(-111.563 -60.156)" fill="#a173fb"/>
        </g>
        <g id="c-3" data-name="c" transform="translate(50.698 -17.204)">
          <path id="Path_257" data-name="Path 257" d="M-.926,3.127,2.686-1.84.917-3.127l-3.6,4.954Z" fill="#349381"/>
        </g>
        <g id="c-4" data-name="c" transform="translate(0 45.938)">
          <path id="Path_258" data-name="Path 258" d="M-8.75-17.5l2.917,35H5.833l2.917-35Z" fill="#dfdfdf"/>
        </g>
        <g id="c-5" data-name="c" transform="translate(0.936 -45.163)">
          <path id="Path_259" data-name="Path 259" d="M84.327,19.519l-1.2-4.206h0a8.75,8.75,0,0,0-8.75-8.75H67.02a8.75,8.75,0,0,0-8.043,5.3h0a33.789,33.789,0,0,0-1.927,20.64l2.116,9.516.235,1.09H82.516l.694-1.762a33.788,33.788,0,0,0,1.117-21.831Z" transform="translate(-70.936 -24.837)" fill="#a173fb"/>
        </g>
        <g id="c-6" data-name="c" transform="translate(1.094 -45.938)">
          <path id="Path_260" data-name="Path 260" d="M61.25,19.688l.641,3.2A19.041,19.041,0,0,0,70,35h0l.077-.039a19.041,19.041,0,0,0,10.267-13.9l.593-3.561-8.75-4.375L61.25,19.687Z" transform="translate(-71.094 -24.063)" fill="#dfdfdf"/>
        </g>
        <g id="c-7" data-name="c" transform="translate(0 -17.184)">
          <path id="Path_261" data-name="Path 261" d="M86.475,49.56a10.937,10.937,0,0,0-6.663-8.01l-5.436-2.175V28.437h-8.75V39.375L60.189,41.55a10.938,10.938,0,0,0-6.663,8.01L52.5,54.687l13.173,20.7A3.9,3.9,0,0,0,70,77.054v0a3.9,3.9,0,0,0,4.328-1.668L87.5,54.687,86.475,49.56Z" transform="translate(-70 -52.816)" fill="#dfdfdf"/>
        </g>
        <g id="c-8" data-name="c" transform="translate(-0.007 -36.335)">
          <path id="Path_262" data-name="Path 262" d="M70,36.094a1.092,1.092,0,0,1-.607-.184,20.142,20.142,0,0,1-3.723-3.2l1.618-1.472a17.967,17.967,0,0,0,2.794,2.49,17.977,17.977,0,0,0,2.849-1.909l1.386,1.692a20.162,20.162,0,0,1-3.75,2.429l-.077.039a1.094,1.094,0,0,1-.489.115Z" transform="translate(-69.993 -33.665)" fill="#cecece"/>
        </g>
        <g id="c-9" data-name="c" transform="translate(0 -13.125)">
          <path id="Path_263" data-name="Path 263" d="M53.525,49.56a10.937,10.937,0,0,1,6.663-8.01l5.436-2.175L70,54.687l4.375-15.313,5.436,2.175a10.938,10.938,0,0,1,6.663,8.01L87.5,54.687l-4.375,6.875V74.375H56.875v-12.9l-.015.06L52.5,54.687l1.026-5.128Z" transform="translate(-70 -56.875)" fill="#a173fb"/>
        </g>
        <g id="c-10" data-name="c" transform="translate(-6.455 -12.194)">
          <path id="Path_264" data-name="Path 264" d="M.953,3.725,3.205,3.16l-4.59-6.885-1.82,1.213Z" fill="#a173fb"/>
        </g>
        <g id="c-11" data-name="c" transform="translate(-41.563 -12.929)">
          <path id="Path_265" data-name="Path 265" d="M50.313,54.688l-1.4-5.592a6.562,6.562,0,0,0-3.781-4.44l-12.321-5.28V33.2h-8.75v6.171l-12.321,5.28A6.562,6.562,0,0,0,7.96,49.1l-1.4,5.592,4.343,6.273h0l2.22,19.977H43.75L45.97,60.96h0l4.343-6.273Z" transform="translate(-28.438 -57.071)" fill="#dfdfdf"/>
        </g>
        <g id="c-12" data-name="c" transform="translate(-41.563 -9.844)">
          <path id="Path_266" data-name="Path 266" d="M50.313,54.688l-1.4-5.592a6.562,6.562,0,0,0-3.781-4.44l-12.321-5.28L28.437,43.75l-4.375-4.375-12.321,5.28A6.562,6.562,0,0,0,7.96,49.1l-1.4,5.592,4.343,6.273,2.22,19.977H43.75L45.97,60.96l4.343-6.273Z" transform="translate(-28.438 -60.156)" fill="#a173fb"/>
        </g>
        <g id="c-13" data-name="c" transform="translate(-41.359 -45.88)">
          <path id="Path_267" data-name="Path 267" d="M38.312,23.185,37,13.976,20.572,15.313,19.06,22.825a9.563,9.563,0,0,0,5.826,10.755h0a9.563,9.563,0,0,0,7.1,0l.408-.163a9.563,9.563,0,0,0,5.915-10.232Z" transform="translate(-28.641 -24.12)" fill="#dfdfdf"/>
        </g>
        <g id="c-14" data-name="c" transform="translate(-39.375 -56.875)">
          <path id="Path_268" data-name="Path 268" d="M28.438,6.563a8.75,8.75,0,0,0-8.75,8.75v4.375l13.295-2.659a10.673,10.673,0,0,0,8.58-10.466H28.438Z" transform="translate(-30.625 -13.125)" fill="#a173fb"/>
        </g>
        <g id="c-15" data-name="c" transform="translate(-41.563 -17.5)">
          <rect id="Rectangle_217" data-name="Rectangle 217" width="4.375" height="2.188" transform="translate(-2.188 -1.094)" fill="#75bbad"/>
        </g>
        <g id="c-16" data-name="c" transform="translate(-41.563 -8.75)">
          <rect id="Rectangle_218" data-name="Rectangle 218" width="4.375" height="2.188" transform="translate(-2.188 -1.094)" fill="#75bbad"/>
        </g>
        <g id="c-17" data-name="c" transform="translate(-41.563 37.188)">
          <path id="Path_269" data-name="Path 269" d="M-15.312-26.25l4.375,52.5H10.938l4.375-52.5Z" fill="#8c8c8c"/>
        </g>
        <g id="c-18" data-name="c" transform="translate(-41.563 40.469)">
          <rect id="Rectangle_219" data-name="Rectangle 219" width="2.188" height="45.938" transform="translate(-1.094 -22.969)" fill="#6e6e6e"/>
        </g>
        <g id="c-19" data-name="c" transform="translate(0 16.406)">
          <path id="Path_270" data-name="Path 270" d="M83.125,74.375H56.875a32.159,32.159,0,0,0-.65,22.113l.65,1.949h26.25l.65-1.949A32.159,32.159,0,0,0,83.125,74.375Z" transform="translate(-70 -86.406)" fill="#8c8c8c"/>
        </g>
        <g id="c-20" data-name="c" transform="translate(41.563 -43.75)">
          <path id="Path_271" data-name="Path 271" d="M100.625,17.5l1.821,10.927a4.375,4.375,0,0,0,2.359,3.194L111.563,35l6.836-3.418a4.375,4.375,0,0,0,2.333-3.055l1.768-8.839L100.625,17.5Z" transform="translate(-111.563 -26.25)" fill="#dfdfdf"/>
        </g>
        <g id="c-21" data-name="c" transform="translate(42.192 -56.647)">
          <path id="Path_272" data-name="Path 272" d="M122.5,19.688,100.625,17.5l-.587-1.762a6.625,6.625,0,0,1,2.61-7.607h0a6.625,6.625,0,0,1,5.112-.955l16.928,3.762-2.187,8.75Z" transform="translate(-112.192 -13.353)" fill="#a173fb"/>
        </g>
        <g id="c-22" data-name="c" transform="translate(41.563 37.188)">
          <rect id="Rectangle_220" data-name="Rectangle 220" width="30.625" height="52.5" transform="translate(-15.313 -26.25)" fill="#8c8c8c"/>
        </g>
        <g id="c-23" data-name="c" transform="translate(41.563 41.563)">
          <rect id="Rectangle_221" data-name="Rectangle 221" width="2.188" height="43.75" transform="translate(-1.094 -21.875)" fill="#6e6e6e"/>
        </g>
        <g id="c-24" data-name="c" transform="translate(49.219 59.063)">
          <path id="Path_273" data-name="Path 273" d="M119.219,124.688a7.656,7.656,0,0,0-7.656,7.656v1.094h15.313v-1.094A7.656,7.656,0,0,0,119.219,124.688Z" transform="translate(-119.219 -129.063)" fill="#575757"/>
        </g>
        <g id="c-25" data-name="c" transform="translate(-35.547 -26.25)">
          <path id="Path_274" data-name="Path 274" d="M-6.016,0,.547,4.375,6.016-1.094-1.641-4.375Z" fill="#75bbad"/>
        </g>
        <g id="c-26" data-name="c" transform="translate(-47.578 -26.25)">
          <path id="Path_275" data-name="Path 275" d="M1.641-4.375-6.016-1.094-.547,4.375,6.016,0Z" fill="#75bbad"/>
        </g>
        <g id="c-27" data-name="c" transform="translate(-37.98 3.68)">
          <path id="Path_276" data-name="Path 276" d="M31.206,66.741l-4.871,6.7a4.521,4.521,0,0,0,.46,5.856h0a4.521,4.521,0,0,0,6.914-.624l4.86-7.021-7.364-4.909Z" transform="translate(-32.02 -73.68)" fill="#dfdfdf"/>
        </g>
        <g id="c-28" data-name="c" transform="translate(-33.633 -10.398)">
          <path id="Path_277" data-name="Path 277" d="M-4.25,7.746-6.08,6.525,4.311-7.746,6.08-6.459Z" fill="#349381"/>
        </g>
        <g id="c-29" data-name="c" transform="translate(-28.339 -2.832)">
          <path id="Path_278" data-name="Path 278" d="M-2.182,5.089,4-3.844,2.2-5.089-4,3.875Z" fill="#349381"/>
        </g>
        <g id="c-30" data-name="c" transform="translate(-49.496 -10.398)">
          <path id="Path_279" data-name="Path 279" d="M4.255,7.746-6.076-6.459l1.769-1.287L6.076,6.531Z" fill="#349381"/>
        </g>
        <g id="c-31" data-name="c" transform="translate(-54.781 -2.816)">
          <path id="Path_280" data-name="Path 280" d="M2.19,5.091-4-3.846l1.8-1.245L4,3.859Z" fill="#349381"/>
        </g>
        <g id="c-32" data-name="c" transform="translate(-45.145 3.68)">
          <path id="Path_281" data-name="Path 281" d="M25.67,66.741,18.306,71.65l4.86,7.021a4.521,4.521,0,0,0,6.914.624h0a4.521,4.521,0,0,0,.46-5.856l-4.871-6.7Z" transform="translate(-24.855 -73.68)" fill="#dfdfdf"/>
        </g>
        <g id="c-33" data-name="c" transform="translate(-43.155 5.281)">
          <path id="Path_282" data-name="Path 282" d="M26.714,80.658a5.655,5.655,0,0,1-.693-.59,5.588,5.588,0,0,1-.57-7.273l2.1-2.891,1.769,1.287-2.1,2.891a3.411,3.411,0,0,0,.348,4.44,3.506,3.506,0,0,0,.426.363l-1.28,1.774Z" transform="translate(-26.845 -75.281)" fill="#cecece"/>
        </g>
        <g id="c-34" data-name="c" transform="translate(-41.554 -36.119)">
          <path id="Path_283" data-name="Path 283" d="M31.99,32.4l-.407.163a8.437,8.437,0,0,1-6.291,0q-.157-.063-.309-.131l-.894,2q.193.087.391.166a10.615,10.615,0,0,0,7.916,0l.407-.163L31.99,32.4Z" transform="translate(-28.446 -33.881)" fill="#cecece"/>
        </g>
        <g id="c-35" data-name="c" transform="translate(-4.615 -0.778)">
          <path id="Path_284" data-name="Path 284" d="M72.211,71.129,65.625,61.25,57.9,63.18l7.768,12.207a3.9,3.9,0,0,0,5.456,1.152h0a3.9,3.9,0,0,0,1.082-5.411Z" transform="translate(-65.385 -69.223)" fill="#dfdfdf"/>
        </g>
        <g id="c-36" data-name="c" transform="translate(4.615 -0.778)">
          <path id="Path_285" data-name="Path 285" d="M74.375,61.25l-6.586,9.879a3.9,3.9,0,0,0,1.082,5.411h0a3.9,3.9,0,0,0,5.456-1.152L82.1,63.18l-7.721-1.93Z" transform="translate(-74.615 -69.222)" fill="#dfdfdf"/>
        </g>
        <g id="c-37" data-name="c" transform="translate(1.726 2.311)">
          <path id="Path_286" data-name="Path 286" d="M72.516,76.807l-1.554-1.54a2.815,2.815,0,0,0,.339-3.531l-1.8-2.706,1.82-1.213,1.8,2.706a5.011,5.011,0,0,1-.605,6.285Z" transform="translate(-71.726 -72.311)" fill="#cecece"/>
        </g>
        <g id="c-38" data-name="c" transform="translate(0 45.938)">
          <rect id="Rectangle_222" data-name="Rectangle 222" width="2.188" height="35" transform="translate(-1.094 -17.5)" fill="#cecece"/>
        </g>
        <g id="c-39" data-name="c" transform="translate(33.906 59.063)">
          <path id="Path_287" data-name="Path 287" d="M103.906,124.688a7.656,7.656,0,0,0-7.656,7.656v1.094h15.313v-1.094A7.656,7.656,0,0,0,103.906,124.688Z" transform="translate(-103.906 -129.063)" fill="#575757"/>
        </g>
        <g id="c-40" data-name="c" transform="translate(-47.031 59.063)">
          <path id="Path_288" data-name="Path 288" d="M22.969,124.688a5.469,5.469,0,0,0-5.469,5.469v3.281H28.438v-3.281A5.469,5.469,0,0,0,22.969,124.688Z" transform="translate(-22.969 -129.063)" fill="#575757"/>
        </g>
        <g id="c-41" data-name="c" transform="translate(-36.094 59.063)">
          <path id="Path_289" data-name="Path 289" d="M33.906,124.688a5.469,5.469,0,0,0-5.469,5.469v3.281H39.375v-3.281A5.469,5.469,0,0,0,33.906,124.688Z" transform="translate(-33.906 -129.063)" fill="#575757"/>
        </g>
        <g id="c-42" data-name="c" transform="translate(-4.375 59.063)">
          <path id="Path_290" data-name="Path 290" d="M65.625,124.688a4.375,4.375,0,0,0-4.375,4.375v4.375H70v-4.375A4.375,4.375,0,0,0,65.625,124.688Z" transform="translate(-65.625 -129.063)" fill="#575757"/>
        </g>
        <g id="c-43" data-name="c" transform="translate(4.375 59.063)">
          <path id="Path_291" data-name="Path 291" d="M74.375,124.688A4.375,4.375,0,0,0,70,129.063v4.375h8.75v-4.375A4.375,4.375,0,0,0,74.375,124.688Z" transform="translate(-74.375 -129.063)" fill="#575757"/>
        </g>
        <g id="c-44" data-name="c" transform="translate(46.609 -3.091)">
          <path id="Path_292" data-name="Path 292" d="M118.9,55.267,107.34,71.158a4.656,4.656,0,0,0,.473,6.031h0a4.656,4.656,0,0,0,6.982-.453L126.768,61.17l-7.871-5.9Z" transform="translate(-116.609 -66.909)" fill="#dfdfdf"/>
        </g>
        <g id="c-45" data-name="c" transform="translate(36.516 -3.091)">
          <path id="Path_293" data-name="Path 293" d="M115.785,71.157,104.228,55.266l-7.871,5.9,11.973,15.565a4.656,4.656,0,0,0,7.455-5.577Z" transform="translate(-106.516 -66.909)" fill="#dfdfdf"/>
        </g>
        <g id="c-46" data-name="c" transform="translate(38.843 -0.861)">
          <path id="Path_294" data-name="Path 294" d="M107.593,73.3l-2.157-.366a5.773,5.773,0,0,1,1.018-2.416l4.024-5.533,1.769,1.287L108.225,71.8A3.526,3.526,0,0,0,107.593,73.3Z" transform="translate(-108.843 -69.139)" fill="#cecece"/>
        </g>
        <g id="c-47" data-name="c" transform="translate(6.455 -12.194)">
          <path id="Path_295" data-name="Path 295" d="M-.953,3.725-3.205,3.16l4.59-6.885,1.82,1.213Z" fill="#a173fb"/>
        </g>
        <g id="c-48" data-name="c" transform="translate(32.427 -17.204)">
          <path id="Path_296" data-name="Path 296" d="M.926,3.127-2.686-1.84-.917-3.127l3.6,4.954Z" fill="#349381"/>
        </g>
        <g id="c-49" data-name="c" transform="translate(-41.563 -17.5)">
          <rect id="Rectangle_223" data-name="Rectangle 223" width="4.375" height="2.188" transform="translate(-2.188 -1.094)" fill="#365650"/>
        </g>
        <g id="c-50" data-name="c" transform="translate(-41.563 -8.75)">
          <rect id="Rectangle_224" data-name="Rectangle 224" width="4.375" height="2.188" transform="translate(-2.188 -1.094)" fill="#365650"/>
        </g>
        <g id="c-51" data-name="c" transform="translate(41.563 0.229)">
          <path id="Path_297" data-name="Path 297" d="M134.5,52.234l-1-3.987a9.62,9.62,0,0,0-6.672-6.9l-9.8-2.8V33.489l1.857-.928a5.434,5.434,0,0,0,2.917-3.819l1.762-8.81,2.182-8.729a1.094,1.094,0,0,0-.824-1.333L108,6.108a7.719,7.719,0,0,0-9,9.975l.561,1.681,1.807,10.842a5.486,5.486,0,0,0,2.949,3.992l1.778.889V38.55l-9.8,2.8a9.62,9.62,0,0,0-6.672,6.9l-1,3.987a1.094,1.094,0,0,0,.194.932L95.156,61.4v72.034a1.094,1.094,0,0,0,1.094,1.094h30.625a1.094,1.094,0,0,0,1.094-1.094V61.4l6.336-8.237a1.1,1.1,0,0,0,.194-.932ZM103.254,9.041a5.559,5.559,0,0,1,4.268-.8l15.832,3.518-1.686,6.744-20.23-2.023-.363-1.09a5.543,5.543,0,0,1,2.179-6.351Zm.271,19.207-1.586-9.517,19.252,1.925-1.531,7.656a3.261,3.261,0,0,1-1.75,2.292l-6.347,3.174-6.268-3.134a3.291,3.291,0,0,1-1.769-2.4Zm7.548,7.731a1.095,1.095,0,0,0,.978,0l2.792-1.4v4.561a3.614,3.614,0,0,1-6.562,0V34.582l2.792,1.4Zm-.863,29.373-3.755,5.163a5.817,5.817,0,0,0-.646,1.15L97.9,61.381l6.1-4.573,6.214,8.544Zm8.919-8.544,6.1,4.573-11.3,14.687a3.562,3.562,0,0,1-5.7-4.267l10.9-14.993ZM97.344,132.344a6.563,6.563,0,0,1,13.125,0Zm15.313,0a6.563,6.563,0,0,1,13.125,0Zm6.563-8.75a8.729,8.729,0,0,0-6.562,2.972V89.688h-2.187v36.878a8.732,8.732,0,0,0-13.125,0V82.031h28.438v44.534a8.729,8.729,0,0,0-6.562-2.972Zm6.563-43.75H97.344v-15.6l8.069,10.49a5.761,5.761,0,0,0,5.692,4.909q.186,0,.373-.012a5.75,5.75,0,0,0,4.185-2.232l10.119-13.154v15.6Zm.779-20.2-6.144-4.608,2.969-4.082-1.769-1.287L111.562,63.492,101.51,49.669,99.74,50.956l2.969,4.082-6.144,4.608-5.688-7.394.869-3.474a7.427,7.427,0,0,1,5.15-5.325l9.724-2.778a5.81,5.81,0,0,0,9.886,0l9.724,2.778a7.427,7.427,0,0,1,5.15,5.325l.869,3.474Z" transform="translate(-111.563 -70.229)" fill="#365650"/>
        </g>
        <g id="c-52" data-name="c" transform="translate(0 0)">
          <path id="Path_298" data-name="Path 298" d="M87.547,49.345a11.991,11.991,0,0,0-3.726-6.562l.4-1.027a35.055,35.055,0,0,0,1.152-22.538l-1.161-4.063a9.855,9.855,0,0,0-9.842-9.686H67.02a9.832,9.832,0,0,0-9.048,5.966,34.677,34.677,0,0,0-1.99,21.308l1.941,8.732a11.981,11.981,0,0,0-5.47,7.871l-1.026,5.128a1.092,1.092,0,0,0,.15.8l4.2,6.606v12.29a33.292,33.292,0,0,0-.594,22.663l.65,1.95a1.094,1.094,0,0,0,1.038.748h3.369l2.1,25.169a5.458,5.458,0,0,0-2.185,4.363v4.375a1.094,1.094,0,0,0,1.094,1.094h17.5a1.094,1.094,0,0,0,1.094-1.094v-4.375a5.458,5.458,0,0,0-2.185-4.363l2.1-25.169h3.369a1.094,1.094,0,0,0,1.038-.748l.65-1.95a33.293,33.293,0,0,0-.594-22.663V61.881l4.2-6.606a1.092,1.092,0,0,0,.15-.8l-1.026-5.128ZM59.983,12.3a7.647,7.647,0,0,1,7.037-4.64h7.355a7.665,7.665,0,0,1,7.656,7.656,1.088,1.088,0,0,0,.042.3l1.2,4.206a32.863,32.863,0,0,1-1.083,21.13l-.19.482a12.112,12.112,0,0,0-1.785-.9l-4.749-1.9V32.482A20.191,20.191,0,0,0,81.423,21.24l.593-3.561a1.094,1.094,0,0,0-.59-1.158l-8.75-4.375a1.093,1.093,0,0,0-1.052.041L60.687,18.75a1.093,1.093,0,0,0-.51,1.152l.641,3.2a20.05,20.05,0,0,0,3.713,8.244v7.285l-4.59,1.836-1.824-8.2A32.5,32.5,0,0,1,59.983,12.3Zm13.3,26.926L70,50.706,66.719,39.222V33.777a20.37,20.37,0,0,0,2.675,2.133,1.094,1.094,0,0,0,1.1.068l.077-.039A20,20,0,0,0,73.281,34.3v4.924Zm-3.2-5.5a17.821,17.821,0,0,1-7.119-11.05l-.489-2.448,9.762-5.857,7.49,3.745-.46,2.764a18.005,18.005,0,0,1-9.184,12.846ZM71.3,71.735a2.811,2.811,0,0,1-.779,3.894A2.808,2.808,0,0,1,66.6,74.8L59.642,63.873l5.5-1.375L71.3,71.735ZM74.857,62.5l5.5,1.375L73.9,74.021a4.955,4.955,0,0,0-.78-3.5l-1.806-2.71L74.857,62.5ZM63.036,73.281H57.969V65.319Zm-.6,26.25h6.468V124.7a5.412,5.412,0,0,0-4.451-.975L62.439,99.531Zm-.095,29.531a3.281,3.281,0,0,1,6.562,0v3.281H62.344Zm15.312,3.281H71.094v-3.281a3.281,3.281,0,0,1,6.563,0Zm-2.111-8.621a5.412,5.412,0,0,0-4.451.975V99.531h6.468l-2.016,24.192Zm7.192-27.581-.4,1.2H57.663l-.4-1.2a31.1,31.1,0,0,1,.37-20.673h6.795l.322.506a4.958,4.958,0,0,0,3.183,2.206,5.044,5.044,0,0,0,1.044.109A4.927,4.927,0,0,0,70,78.181a5.031,5.031,0,0,0,1.047.112,4.968,4.968,0,0,0,4.2-2.318l.322-.506h6.795a31.1,31.1,0,0,1,.37,20.673Zm-.706-22.861H76.964l5.067-7.963ZM81.6,61.928l-5.45-1.363,3.514-5.271-1.82-1.213L70,65.841l-7.84-11.76-1.82,1.213,3.514,5.271L58.4,61.928l-4.745-7.457.939-4.7a9.811,9.811,0,0,1,6-7.209l4.312-1.725,4.042,14.147a1.094,1.094,0,0,0,2.1,0L75.094,40.84l4.312,1.725a9.811,9.811,0,0,1,6,7.209l.939,4.7L81.6,61.928Z" transform="translate(-70 -70)" fill="#365650"/>
        </g>
        <g id="c-53" data-name="c" transform="translate(-41.563 0)">
          <path id="Path_299" data-name="Path 299" d="M49.976,48.83a7.7,7.7,0,0,0-4.412-5.18l-11.658-5V33.914A10.625,10.625,0,0,0,39.4,23.03l-1.053-7.373a11.785,11.785,0,0,0,4.315-9.094,1.094,1.094,0,0,0-1.094-1.094H28.438a9.855,9.855,0,0,0-9.844,9.844V19.58l-.606,3.031a10.659,10.659,0,0,0,4.981,11.235v4.809l-11.657,5A7.7,7.7,0,0,0,6.9,48.83L5.5,54.422a1.093,1.093,0,0,0,.162.888l4.186,6.046,2.187,19.686,4.374,52.486h.005a1.09,1.09,0,0,0,1.085,1H39.375a1.09,1.09,0,0,0,1.085-1h.005l4.374-52.486,2.187-19.686,4.186-6.046a1.093,1.093,0,0,0,.162-.888l-1.4-5.592Zm-11.423-5.8-3.692,3.692L30.154,43.58l2.908-2.908,5.491,2.353Zm-13.4-8.189a10.54,10.54,0,0,0,6.563,0v4.085L28.438,42.2l-3.281-3.281V34.837ZM20.781,15.312a7.665,7.665,0,0,1,7.656-7.656H40.406a9.61,9.61,0,0,1-7.638,8.3l-11.987,2.4V15.312Zm-.649,7.727.485-2.422L33.2,18.1a11.68,11.68,0,0,0,3.126-1.107l.907,6.345A8.448,8.448,0,0,1,31.99,32.4l-.407.163a8.47,8.47,0,0,1-11.451-9.525Zm3.681,17.633,2.908,2.908-4.706,3.138-3.692-3.692,5.491-2.353Zm3.272,29.875-1.635,2.248a5.58,5.58,0,0,0-.195,6.314,3.412,3.412,0,0,1-1.19-1.061l-4.227-6.106L25.4,68.234l1.682,2.313Zm4.387-2.313,5.564,3.709-4.227,6.105a3.427,3.427,0,1,1-5.59-3.967l4.253-5.848Zm2.434,55.36a6.535,6.535,0,0,0-4.375,1.676V87.5H27.344v37.77a6.548,6.548,0,0,0-9.373.641l-3.657-43.88H42.561L38.9,125.911a6.549,6.549,0,0,0-5-2.317Zm-11.639-44.3a5.589,5.589,0,0,0,.434.55H14.1l-1.633-14.7,9.8,14.151Zm-3.673,50.863a4.375,4.375,0,1,1,8.75,0v2.188h-8.75Zm19.687,2.188h-8.75v-2.187a4.375,4.375,0,1,1,8.75,0Zm4.49-52.5h-8.6a5.645,5.645,0,0,0,.436-.55l9.8-14.15-1.633,14.7Zm-4.49-9.7L32.76,66.463l9.687-13.32-1.769-1.287L28.438,68.687,16.2,51.856l-1.769,1.287,9.687,13.32-5.522,3.681L7.744,54.472l1.278-5.111a5.5,5.5,0,0,1,3.151-3.7l3.984-1.707L21.1,48.9a1.093,1.093,0,0,0,1.38.137l5.956-3.971,5.956,3.971a1.093,1.093,0,0,0,1.38-.137l4.945-4.945L44.7,45.66a5.5,5.5,0,0,1,3.151,3.7l1.278,5.112L38.282,70.144Z" transform="translate(-28.438 -70)" fill="#365650"/>
        </g>
      </g>
    </g>
  </g>
</svg>
