<svg xmlns="http://www.w3.org/2000/svg" width="20.116" height="18.098" viewBox="0 0 20.116 18.098">
  <g id="search-w" transform="translate(-2734.012 823.892)">
    <g id="_192942" data-name="192942" transform="translate(2734.012 -823.892)">
      <path id="Path_62" data-name="Path 62" d="M19.863,17.008l-5.772-5.2a6.616,6.616,0,0,0,1.822-4.514C15.913,3.381,12.347.2,7.961.2S0,3.385,0,7.3s3.566,7.094,7.952,7.094a8.549,8.549,0,0,0,4.939-1.537l5.792,5.215a.875.875,0,0,0,1.179,0A.682.682,0,0,0,19.863,17.008ZM1.69,7.3c0-3.074,2.812-5.572,6.262-5.572s6.262,2.5,6.262,5.572S11.4,12.869,7.952,12.869,1.69,10.367,1.69,7.3Z" transform="translate(0 -0.2)" fill="#fff"/>
    </g>
  </g>
</svg>
