<svg xmlns="http://www.w3.org/2000/svg" width="140.272" height="92.939" viewBox="0 0 140.272 92.939">
  <g id="users" transform="translate(-1112.361 534.972)">
    <g id="_3655" data-name="3655" transform="translate(528.498 528.498)">
      <g id="Group_162" data-name="Group 162" transform="translate(654 -1017)">
        <g id="SVGRepo_iconCarrier" transform="translate(-0.001 -9.239)">
          <circle id="Ellipse_30" data-name="Ellipse 30" cx="18.894" cy="18.894" r="18.894" transform="translate(-18.894 -18.894)" fill="#a173fb" stroke="#a173fb" stroke-width="0.273"/>
        </g>
        <g id="SVGRepo_iconCarrier-2" data-name="SVGRepo_iconCarrier" transform="translate(-0.002 30.048)">
          <path id="Path_252" data-name="Path 252" d="M99.91,116.325c-.326-18.048-13.581-32.567-29.916-32.567S40.4,98.277,40.078,116.325Z" transform="translate(-69.994 -100.041)" fill="#a173fb" stroke="#a173fb" stroke-width="0.273"/>
        </g>
        <g id="SVGRepo_iconCarrier-3" data-name="SVGRepo_iconCarrier" transform="translate(-47.522 -32.14)">
          <circle id="Ellipse_31" data-name="Ellipse 31" cx="14.194" cy="14.194" r="14.194" transform="translate(-14.194 -14.194)" fill="#a173fb" stroke="#a173fb" stroke-width="0.273"/>
        </g>
        <g id="SVGRepo_iconCarrier-4" data-name="SVGRepo_iconCarrier" transform="translate(-47.523 -1.784)">
          <path id="Path_253" data-name="Path 253" d="M44.95,80.446c-.245-13.561-10.2-24.472-22.475-24.472S.245,66.887,0,80.446Z" transform="translate(-22.475 -68.211)" fill="#a173fb" stroke="#a173fb" stroke-width="0.273"/>
        </g>
        <g id="SVGRepo_iconCarrier-5" data-name="SVGRepo_iconCarrier" transform="translate(47.52 -32.14)">
          <circle id="Ellipse_32" data-name="Ellipse 32" cx="14.194" cy="14.194" r="14.194" transform="translate(-14.194 -14.194)" fill="#a173fb" stroke="#a173fb" stroke-width="0.273"/>
        </g>
        <g id="SVGRepo_iconCarrier-6" data-name="SVGRepo_iconCarrier" transform="translate(47.521 -1.784)">
          <path id="Path_254" data-name="Path 254" d="M139.988,80.446c-.245-13.561-10.2-24.472-22.475-24.472S95.284,66.887,95.039,80.446Z" transform="translate(-117.513 -68.211)" fill="#a173fb" stroke="#a173fb" stroke-width="0.273"/>
        </g>
      </g>
    </g>
  </g>
</svg>
